<svg xmlns="http://www.w3.org/2000/svg" version="1.1" xmlns:xlink="http://www.w3.org/1999/xlink" xmlns:svgjs="http://svgjs.dev/svgjs" width="1000" height="1000" viewBox="0 0 1000 1000"><rect width="1000" height="1000" fill="#636365"></rect><g transform="matrix(0.7,0,0,0.7,150.74375187165776,38.37408906882587)"><svg viewBox="0 0 187 247" data-background-color="#636365" preserveAspectRatio="xMidYMid meet" height="1320" width="1000" xmlns="http://www.w3.org/2000/svg" xmlns:xlink="http://www.w3.org/1999/xlink"><g id="tight-bounds" transform="matrix(1,0,0,1,-0.1986880000000042,-0.09999999999999432)"><svg viewBox="0 0 187.397376 247.2" height="247.2" width="187.397376"><g><svg></svg></g><g><svg viewBox="0 0 187.397376 247.2" height="247.2" width="187.397376"><g transform="matrix(1,0,0,1,0,47.215199999999996)"><svg viewBox="0 0 187.397376 152.7696" height="152.7696" width="187.397376"><g><svg viewBox="0 0 187.397376 152.7696" height="152.7696" width="187.397376"><g><svg viewBox="0 0 187.397376 152.7696" height="152.7696" width="187.397376"><g><svg viewBox="0 0 187.397376 152.7696" height="152.7696" width="187.397376"><g><svg viewBox="0 0 187.397376 152.7696" height="152.7696" width="187.397376"><g><svg viewBox="0 0 187.397376 152.7696" height="152.7696" width="187.397376"><g transform="matrix(1,0,0,1,0,0)"><svg width="187.397376" viewBox="1 -37.5 46 37.5" height="152.7696" data-palette-color="#d2d6dc"><path d="M17.05-37.5L17.05-34.1 13.8-34.1 13.8-5.85Q13.8-1.9 11.05-0.5L11.05-0.5Q10 0 8.45 0L8.45 0 1 0 1-3.4 9.7-3.4 9.7-34.1 6.5-34.1 6.5-37.5 17.05-37.5ZM37.85-14.15L37.85-17.7 30.8-17.7 30.8-3.4 34.05-3.4 34.05 0 23.55 0 23.55-3.4 26.7-3.4 26.7-34.1 23.55-34.1 23.55-37.5 47-37.5 47-28.25 43.6-28.25 43.6-34.1 30.8-34.1 30.8-21.1 37.85-21.1 37.85-24.65 41.25-24.65 41.25-14.15 37.85-14.15Z" opacity="1" transform="matrix(1,0,0,1,0,0)" fill="#d2d6dc" class="undefined-text-0" data-fill-palette-color="primary" id="text-0"></path></svg></g></svg></g></svg></g></svg></g><g></g></svg></g></svg></g></svg></g><path d="M0 41.215L0 1 187.397 1 187.397 41.215 173.62 41.215 173.62 14.777 13.777 14.777 13.777 41.215 0 41.215M0 205.985L0 246.2 187.397 246.2 187.397 205.985 173.62 205.985 173.62 232.423 13.777 232.423 13.777 205.985 0 205.985" fill="#d2d6dc" stroke="transparent" data-fill-palette-color="primary"></path></svg></g><defs></defs></svg><rect width="187.397376" height="247.2" fill="none" stroke="none" visibility="hidden"></rect></g></svg></g></svg>